<?xml version="1.0" encoding="UTF-8" standalone="no"?>
<svg
   width="32"
   height="32"
   version="1"
   id="svg6"
   sodipodi:docname="question.svg"
   inkscape:version="1.2.2 (b0a8486541, 2022-12-01)"
   xmlns:inkscape="http://www.inkscape.org/namespaces/inkscape"
   xmlns:sodipodi="http://sodipodi.sourceforge.net/DTD/sodipodi-0.dtd"
   xmlns="http://www.w3.org/2000/svg"
   xmlns:svg="http://www.w3.org/2000/svg">
  <defs
     id="defs10" />
  <sodipodi:namedview
     id="namedview8"
     pagecolor="#ffffff"
     bordercolor="#000000"
     borderopacity="0.25"
     inkscape:showpageshadow="2"
     inkscape:pageopacity="0.0"
     inkscape:pagecheckerboard="0"
     inkscape:deskcolor="#d1d1d1"
     showgrid="false"
     inkscape:zoom="24.4375"
     inkscape:cx="16.061381"
     inkscape:cy="16"
     inkscape:window-width="1920"
     inkscape:window-height="1011"
     inkscape:window-x="0"
     inkscape:window-y="0"
     inkscape:window-maximized="1"
     inkscape:current-layer="svg6" />
  <circle
     style="fill:#455a64"
     cx="16"
     cy="16"
     r="14"
     id="circle2" />
  <path
     style="fill:#ffffff"
     d="M 15.699781,6 C 12.495281,6 9.899,8.7955 9.899,12 h 2.90039 c 0,-1.595 1.305391,-3.099609 2.900391,-3.099609 1.595,0 2.900391,1.30539 2.900391,2.90039 0,0.7975 -0.318969,1.520969 -0.855469,2.042969 l -1.798828,1.828125 c -1.044,1.0585 -1.695313,2.508516 -1.695313,4.103516 V 20 h 2.919922 c 0.09713,-1.807411 0.717891,-2.632321 1.675781,-3.603516 L 20.150953,15.0625 c 0.8265,-0.8265 1.349609,-1.985719 1.349609,-3.261719 C 21.500562,8.596281 18.904281,6 15.699781,6 Z m -1.5,17 v 3 h 3 v -3 z"
     id="path4" />
  <path
     style="fill:#3e50b4;fill-opacity:1;stroke-width:0.0409207"
     d="M 15.118069,29.954072 C 12.208121,29.752101 9.5332968,28.712114 7.2445459,26.892803 6.7349586,26.487736 5.5054471,25.256328 5.0923636,24.737302 3.653516,22.929433 2.6530307,20.743516 2.2545495,18.537084 2.0382619,17.339477 1.9655667,15.692657 2.082946,14.649616 2.3558932,12.224189 3.0751003,10.212435 4.3580563,8.2857162 4.94222,7.4084305 5.3195115,6.9521723 6.135842,6.135842 7.305652,4.9660316 8.3206715,4.2247303 9.7186701,3.5191866 13.656748,1.5317127 18.328108,1.5239032 22.240409,3.4982529 c 1.361099,0.6868807 2.396536,1.4268782 3.493008,2.4963534 1.365125,1.3315118 2.355533,2.7570549 3.09248,4.4511567 0.772385,1.775567 1.137988,3.559983 1.137988,5.554237 0,2.828621 -0.768234,5.380956 -2.321941,7.714284 -0.584164,0.877286 -0.961455,1.333544 -1.777786,2.149874 -0.81633,0.816331 -1.272588,1.193622 -2.149874,1.777786 -1.877124,1.249932 -3.896196,1.98663 -6.159297,2.247341 -0.670043,0.07719 -1.81837,0.107719 -2.436918,0.06479 z m 2.109552,-5.442563 v -1.514067 h -1.514066 -1.514067 v 1.514067 1.514066 h 1.514067 1.514066 z m -0.0201,-4.777494 c 0.0686,-0.693085 0.238716,-1.313892 0.501955,-1.831737 0.286016,-0.562653 0.539837,-0.860076 2.077389,-2.434247 0.403025,-0.412624 0.791814,-0.853408 0.917389,-1.040075 0.742393,-1.103569 0.980062,-2.400497 0.695687,-3.79628 C 20.984959,8.5948231 19.519591,6.9426942 17.540719,6.2805917 16.909276,6.0693201 16.451095,5.9998458 15.693095,6.0004359 15.176222,6.000837 14.950578,6.019749 14.621446,6.0902482 13.529106,6.3242242 12.620202,6.8019208 11.817075,7.5641522 10.63578,8.685296 9.9985837,10.056711 9.8891503,11.713555 l -0.020947,0.317136 h 1.4659727 1.465973 l 0.02732,-0.255755 c 0.06075,-0.568808 0.298949,-1.196063 0.6206,-1.634239 0.0775,-0.105575 0.277822,-0.3198184 0.445164,-0.4760967 0.732639,-0.6842042 1.712648,-0.9071554 2.659201,-0.6049661 0.457486,0.1460534 0.807861,0.3626336 1.165943,0.7207153 0.354596,0.3545975 0.570903,0.7024065 0.725109,1.1659425 0.09552,0.287139 0.108917,0.392732 0.108997,0.859335 8.2e-5,0.463471 -0.01357,0.572952 -0.105971,0.850252 -0.20286,0.608759 -0.358132,0.808892 -1.626193,2.096039 -1.162202,1.179696 -1.470602,1.538441 -1.794633,2.087599 -0.486073,0.82378 -0.784412,1.892685 -0.785031,2.812657 l -2.42e-4,0.358056 h 1.469889 1.469889 z"
     id="path619" />
</svg>
